<svg xmlns="http://www.w3.org/2000/svg" width="80" height="80"><g fill="none" fill-rule="evenodd"><path fill="#1e5a96" d="M11.689 68.348c-15.585-15.538-15.585-40.728 0-56.265 15.582-15.536 40.85-15.535 56.433 0 15.584 15.538 15.583 40.726 0 56.263-15.584 15.538-40.849 15.54-56.433.002"/><path fill="#fff" d="M59.56 41.312c-1.399 3.786-9.586 3.753-20.701 3.786 0 0 7.182-1.012 9.257-5.01 2.077-3.995 4.522-12.093 4.522-12.093-11.059 0-12.044 3.862-12.044 3.862s-6.99 19.484-9.482 26.673c-19.366 0-16.27-9.537-16.27-9.537l9.686-27.092h19.625l-1.31 3.902S44.442 21.9 55.258 21.9c0 0 11.09.049 9.786 3.922-1.3 3.873-5.484 15.49-5.484 15.49"/></g></svg>
